<?xml version="1.0" encoding="UTF-8"?>
<!DOCTYPE svg PUBLIC "-//W3C//DTD SVG 1.1//EN" "http://www.w3.org/Graphics/SVG/1.1/DTD/svg11.dtd">
<svg xmlns="http://www.w3.org/2000/svg" version="1.1" width="267px" height="267px" style="shape-rendering:geometricPrecision; text-rendering:geometricPrecision; image-rendering:optimizeQuality; fill-rule:evenodd; clip-rule:evenodd" xmlns:xlink="http://www.w3.org/1999/xlink">
<g><path style="opacity:1" fill="#f9f9f9" d="M -0.5,-0.5 C 88.5,-0.5 177.5,-0.5 266.5,-0.5C 266.5,88.5 266.5,177.5 266.5,266.5C 177.5,266.5 88.5,266.5 -0.5,266.5C -0.5,177.5 -0.5,88.5 -0.5,-0.5 Z"/></g>
<g><path style="opacity:1" fill="#3a77f9" d="M 174.5,127.5 C 168.833,122.5 163.5,117.167 158.5,111.5C 162.533,106.951 166.033,101.951 169,96.5C 172.116,83.2277 167.283,74.3943 154.5,70C 148.903,68.9091 143.57,69.5758 138.5,72C 120.667,88.5 103.5,105.667 87,123.5C 81.9414,131.99 82.4414,139.99 88.5,147.5C 94.9818,155.604 102.982,157.604 112.5,153.5C 114.255,152.928 115.922,152.094 117.5,151C 125.035,143.298 132.702,135.798 140.5,128.5C 146.5,133.833 152.167,139.5 157.5,145.5C 148.473,154.194 139.473,162.861 130.5,171.5C 124.715,175.201 118.382,177.534 111.5,178.5C 85.4877,180.077 68.6544,168.411 61,143.5C 58.6248,130.338 61.2914,118.338 69,107.5C 86.5,90 104,72.5 121.5,55C 144.289,40.6569 165.122,43.1569 184,62.5C 199.21,86.8678 196.043,108.534 174.5,127.5 Z"/></g>
<g><path style="opacity:1" fill="#f5f7f8" d="M 158.5,111.5 C 141.339,97.421 123.672,96.921 105.5,110C 93.1545,119.521 87.4878,132.021 88.5,147.5C 82.4414,139.99 81.9414,131.99 87,123.5C 103.5,105.667 120.667,88.5 138.5,72C 143.57,69.5758 148.903,68.9091 154.5,70C 167.283,74.3943 172.116,83.2277 169,96.5C 166.033,101.951 162.533,106.951 158.5,111.5 Z"/></g>
<g><path style="opacity:1" fill="#1dda40" d="M 158.5,111.5 C 163.5,117.167 168.833,122.5 174.5,127.5C 181.852,135.352 189.352,143.018 197,150.5C 210.467,173.533 207.3,194.033 187.5,212C 169.949,222.286 152.616,221.953 135.5,211C 125.167,200.667 114.833,190.333 104.5,180C 107.036,179.814 109.369,179.314 111.5,178.5C 118.382,177.534 124.715,175.201 130.5,171.5C 137.297,178.798 144.297,185.965 151.5,193C 163.171,198.874 172.671,196.374 180,185.5C 182.498,178.482 181.832,171.816 178,165.5C 171.298,158.631 164.465,151.964 157.5,145.5C 152.167,139.5 146.5,133.833 140.5,128.5C 126.523,122.728 116.689,127.061 111,141.5C 110.081,145.731 110.581,149.731 112.5,153.5C 102.982,157.604 94.9818,155.604 88.5,147.5C 87.4878,132.021 93.1545,119.521 105.5,110C 123.672,96.921 141.339,97.421 158.5,111.5 Z"/></g>
<g><path style="opacity:1" fill="#f5f8f8" d="M 140.5,128.5 C 132.702,135.798 125.035,143.298 117.5,151C 115.922,152.094 114.255,152.928 112.5,153.5C 110.581,149.731 110.081,145.731 111,141.5C 116.689,127.061 126.523,122.728 140.5,128.5 Z"/></g>
<g><path style="opacity:1" fill="#f7f9f8" d="M 157.5,145.5 C 164.465,151.964 171.298,158.631 178,165.5C 181.832,171.816 182.498,178.482 180,185.5C 172.671,196.374 163.171,198.874 151.5,193C 144.297,185.965 137.297,178.798 130.5,171.5C 139.473,162.861 148.473,154.194 157.5,145.5 Z"/></g>
</svg>
